<svg width="200" height="50" viewBox="0 0 200 50" xmlns="http://www.w3.org/2000/svg">
  <!-- Background circle for icon -->
  <circle cx="25" cy="25" r="22" fill="#2563eb" opacity="0.1"/>
  
  <!-- Heart shape -->
  <path d="M25 35c-7-7-12-10-12-16 0-3.5 2.5-6 6-6 2 0 4 1 6 3 2-2 4-3 6-3 3.5 0 6 2.5 6 6 0 6-5 9-12 16z" fill="#2563eb"/>
  
  <!-- Pet paw print inside heart -->
  <circle cx="22" cy="22" r="2" fill="white"/>
  <circle cx="28" cy="22" r="2" fill="white"/>
  <circle cx="20" cy="26" r="1.5" fill="white"/>
  <circle cx="25" cy="28" r="1.5" fill="white"/>
  <circle cx="30" cy="26" r="1.5" fill="white"/>
  
  <!-- Stethoscope accent -->
  <path d="M35 20c2 0 4 2 4 4s-2 4-4 4" stroke="#10b981" stroke-width="2" fill="none"/>
  <circle cx="39" cy="24" r="2" fill="#10b981"/>
  
  <!-- Text "The Vet Care" -->
  <text x="55" y="20" font-family="Inter, system-ui, sans-serif" font-size="18" font-weight="700" fill="#1f2937">
    The Vet
  </text>
  <text x="55" y="38" font-family="Inter, system-ui, sans-serif" font-size="18" font-weight="700" fill="#2563eb">
    Care
  </text>
  
  <!-- Small tagline -->
  <text x="130" y="32" font-family="Inter, system-ui, sans-serif" font-size="9" font-weight="500" fill="#6b7280">
    Compassionate Pet Healthcare
  </text>
</svg>