<svg width="64" height="64" viewBox="0 0 64 64" xmlns="http://www.w3.org/2000/svg">
  <!-- Background circle -->
  <circle cx="32" cy="32" r="28" fill="#2563eb" opacity="0.1"/>
  
  <!-- Heart shape (larger) -->
  <path d="M32 45c-9-9-15-13-15-20 0-4.5 3-8 8-8 2.5 0 5 1.5 7 4 2-2.5 4.5-4 7-4 5 0 8 3.5 8 8 0 7-6 11-15 20z" fill="#2563eb"/>
  
  <!-- Pet paw print inside heart -->
  <circle cx="28" cy="28" r="2.5" fill="white"/>
  <circle cx="36" cy="28" r="2.5" fill="white"/>
  <circle cx="25" cy="34" r="2" fill="white"/>
  <circle cx="32" cy="37" r="2" fill="white"/>
  <circle cx="39" cy="34" r="2" fill="white"/>
  
  <!-- Stethoscope accent -->
  <path d="M45 25c3 0 5 2.5 5 5s-2 5-5 5" stroke="#10b981" stroke-width="2.5" fill="none"/>
  <circle cx="50" cy="30" r="2.5" fill="#10b981"/>
  
  <!-- Small "VC" text for icon version -->
  <text x="32" y="56" font-family="Inter, system-ui, sans-serif" font-size="8" font-weight="700" fill="#2563eb" text-anchor="middle">
    THE VET CARE
  </text>
</svg>